<?xml version="1.0" standalone="no"?>
<!DOCTYPE svg PUBLIC "-//W3C//DTD SVG 20010904//EN"
 "http://www.w3.org/TR/2001/REC-SVG-20010904/DTD/svg10.dtd">
<svg version="1.0" xmlns="http://www.w3.org/2000/svg"
 width="1554.000000pt" height="383.000000pt" viewBox="0 0 1554.000000 383.000000"
 preserveAspectRatio="xMidYMid meet">

<g transform="translate(0.000000,383.000000) scale(0.100000,-0.100000)"
fill="#000000" stroke="none">
<path d="M7040 3819 c-448 -24 -849 -197 -1140 -489 -358 -359 -521 -803 -521
-1415 0 -576 130 -979 434 -1341 219 -261 564 -458 934 -533 316 -64 705 -51
998 34 601 174 1035 670 1119 1278 l5 37 -402 0 c-221 0 -452 3 -513 6 l-110
7 -13 -59 c-22 -103 -86 -221 -157 -291 -128 -126 -299 -181 -524 -170 -299
15 -489 139 -616 402 -81 166 -114 349 -114 630 0 322 52 534 176 722 88 133
196 216 349 270 75 26 90 28 250 28 158 0 175 -2 250 -27 201 -68 338 -228
383 -445 l17 -83 512 0 513 0 -5 28 c-3 15 -9 61 -15 102 -119 845 -835 1363
-1810 1309z"/>
<path d="M13870 3819 c-327 -17 -623 -109 -865 -267 -38 -26 -114 -89 -169
-142 -153 -148 -242 -296 -294 -490 -23 -86 -25 -113 -25 -280 0 -195 8 -247
63 -392 70 -188 248 -361 500 -487 161 -81 326 -132 645 -202 401 -88 479
-110 602 -173 109 -55 173 -142 173 -237 0 -145 -112 -255 -303 -296 -93 -19
-344 -13 -432 11 -147 41 -261 127 -322 241 -35 67 -63 164 -63 219 l0 36
-482 -2 -481 -3 2 -80 c6 -232 68 -465 169 -636 192 -327 532 -527 1033 -606
165 -26 646 -26 804 0 358 60 610 170 804 352 266 250 370 666 266 1062 -75
285 -258 496 -565 652 -202 103 -323 141 -718 226 -283 61 -379 88 -472 135
-125 63 -173 131 -172 242 1 141 86 233 254 273 75 18 293 20 370 4 81 -17
170 -64 216 -113 58 -63 84 -119 107 -228 l5 -28 483 0 482 0 -7 108 c-19 271
-127 510 -318 702 -292 293 -731 429 -1290 399z"/>
<path d="M0 1910 l0 -1860 505 0 505 0 0 1860 0 1860 -505 0 -505 0 0 -1860z"/>
<path d="M1986 1928 c-335 -1014 -611 -1851 -614 -1860 -4 -17 27 -18 542 -18
300 0 546 2 546 5 0 2 45 154 100 337 56 183 103 341 106 351 5 16 41 17 621
15 l615 -3 107 -352 106 -353 546 0 546 0 -384 1163 c-211 639 -487 1476 -614
1860 l-230 697 -692 0 -693 0 -608 -1842z m1343 725 c119 -389 340 -1127 337
-1130 -1 -2 -174 -2 -383 -1 l-380 3 173 575 c96 316 179 592 184 613 18 62
36 46 69 -60z"/>
<path d="M9320 1910 l0 -1860 1340 0 1340 0 0 410 0 410 -830 0 -830 0 0 315
0 315 765 0 765 0 0 410 0 410 -765 0 -765 0 0 320 0 320 835 0 835 0 0 405 0
405 -1345 0 -1345 0 0 -1860z"/>
</g>
</svg>
